<?xml version="1.0" encoding="utf-8"?>
<!-- Generator: Adobe Illustrator 27.5.0, SVG Export Plug-In . SVG Version: 6.00 Build 0)  -->
<svg version="1.1" xmlns="http://www.w3.org/2000/svg" xmlns:xlink="http://www.w3.org/1999/xlink" x="0px" y="0px"
	 viewBox="0 0 500 500" style="enable-background:new 0 0 500 500;" xml:space="preserve">
<g id="Floor">
	<ellipse style="fill:#F5F5F5;" cx="254.586" cy="356.569" rx="228.274" ry="131.794"/>
</g>
<g id="Shadows">
	<ellipse style="fill:#E0E0E0;" cx="220.852" cy="311.135" rx="46.745" ry="26.988"/>
	<path style="fill:#E0E0E0;" d="M401.182,387.981c25.131,14.509,25.131,38.034,0,52.544c-25.131,14.51-65.878,14.51-91.009,0
		c-25.132-14.51-25.131-38.034,0-52.544C335.304,373.471,376.051,373.471,401.182,387.981z"/>
	<path style="fill:#E0E0E0;" d="M166.477,292.608l131.974,76.195c2.303,1.33,2.303,4.654,0,5.984l-77.885,44.967
		c-3.283,1.895-7.328,1.895-10.611,0L77.981,343.559c-2.303-1.33-2.303-4.654,0-5.984l77.885-44.967
		C159.149,290.713,163.194,290.713,166.477,292.608z"/>
	<path style="fill:#E0E0E0;" d="M115.609,349.302l91.478,54.387c1.448,0.836,1.448,2.926,0,3.762l-48.962,28.268
		c-2.064,1.191-4.606,1.191-6.67,0l-91.478-54.387c-1.448-0.836-1.448-2.926,0-3.762l48.962-28.268
		C111.002,348.111,113.545,348.111,115.609,349.302z"/>
	<path style="fill:#E0E0E0;" d="M283.696,238.212l157.039,90.597c2.267,1.309,5.061,1.309,7.328,0l9.858-5.691
		c1.689-0.975,1.689-3.414,0-4.389l-156.946-90.543c-2.325-1.342-5.19-1.342-7.515,0l-9.764,5.637
		C282.006,234.798,282.006,237.237,283.696,238.212z"/>
</g>
<g id="Tasks">
	<g>
		<path style="fill:#BA68C8;" d="M295.295,233.615l152.559,88.08c2.392,1.381,5.382-0.345,5.382-3.107V117.655
			c0-3.491-1.862-6.716-4.885-8.462l-145.77-84.16c-3.238-1.869-7.285,0.467-7.285,4.206V233.615z"/>
		<path style="opacity:0.5;fill:#FFFFFF;" d="M295.295,233.615l152.559,88.08c2.392,1.381,5.382-0.345,5.382-3.107V117.655
			c0-3.491-1.862-6.716-4.885-8.462l-145.77-84.16c-3.238-1.869-7.285,0.467-7.285,4.206V233.615z"/>
		<g>
			<polygon style="fill:#BA68C8;" points="299.607,242.835 439.498,323.601 439.498,119.412 299.607,38.645 			"/>
			<polygon style="opacity:0.8;fill:#FFFFFF;" points="299.607,242.835 439.498,323.601 439.498,119.412 299.607,38.645 			"/>
			<g>
				<polygon style="fill:#BA68C8;" points="285.949,226.527 425.84,307.293 439.498,119.412 299.607,38.645 				"/>
				<polygon style="opacity:0.9;fill:#FFFFFF;" points="285.949,226.527 425.84,307.293 439.498,119.412 299.607,38.645 				"/>
			</g>
			<polygon style="fill:#BA68C8;" points="299.607,38.645 439.498,119.412 444.803,116.349 304.911,35.583 			"/>
			<polygon style="opacity:0.7;fill:#FFFFFF;" points="299.607,38.645 439.498,119.412 444.803,116.349 304.911,35.583 			"/>
			<polygon style="fill:#BA68C8;" points="444.803,116.349 444.803,319.763 439.498,323.601 439.498,119.412 			"/>
			<polygon style="fill:#BA68C8;" points="444.803,116.349 444.803,319.763 439.498,323.601 439.498,119.412 			"/>
			<polygon style="opacity:0.7;fill:#FFFFFF;" points="444.803,116.349 444.803,319.763 439.498,323.601 439.498,119.412 			"/>
		</g>
		<g>
			<g>
				<g>
					<path style="fill:#BA68C8;" d="M401.035,145.913c-0.121,0-0.242-0.016-0.361-0.047c-0.43-0.115-0.779-0.425-0.943-0.838
						l-4.158-10.444c-0.287-0.721,0.064-1.538,0.785-1.824c0.722-0.286,1.538,0.064,1.824,0.785l3.459,8.688l19.908-15.816
						c0.61-0.484,1.491-0.381,1.974,0.226c0.482,0.607,0.382,1.491-0.226,1.973l-21.388,16.992
						C401.657,145.808,401.349,145.913,401.035,145.913z"/>
				</g>
				<g>
					<path style="fill:#BA68C8;" d="M377.753,123.384c-0.238,0-0.48-0.061-0.701-0.188l-58.9-34.006
						c-0.672-0.388-0.902-1.247-0.515-1.918c0.39-0.672,1.25-0.901,1.919-0.514l58.9,34.006c0.672,0.388,0.902,1.247,0.515,1.918
						C378.71,123.132,378.238,123.384,377.753,123.384z"/>
					<path style="fill:#BA68C8;" d="M376.402,135.469c-0.238,0-0.48-0.061-0.701-0.188l-58.9-34.006
						c-0.672-0.388-0.902-1.247-0.515-1.918c0.39-0.671,1.249-0.902,1.919-0.514l58.9,34.006c0.672,0.388,0.902,1.246,0.515,1.918
						C377.359,135.217,376.888,135.469,376.402,135.469z"/>
				</g>
				<path style="fill:#BA68C8;" d="M410.389,161.216c-0.624,0-1.249-0.157-1.816-0.472l-18.212-10.079
					c-2.668-1.476-4.224-4.393-3.964-7.43l1.736-20.302c0.11-1.286,0.858-2.41,2.003-3.007c1.143-0.597,2.493-0.568,3.611,0.077
					l19.154,11.059c1.847,1.066,2.94,3.129,2.786,5.257l-1.557,21.413c-0.093,1.283-0.823,2.415-1.954,3.027
					C411.616,161.064,411.002,161.216,410.389,161.216z M391.877,122.308c-0.201,0-0.36,0.066-0.442,0.109
					c-0.138,0.072-0.463,0.29-0.503,0.756l-1.736,20.302c-0.165,1.935,0.825,3.792,2.524,4.732l18.212,10.079
					c0.407,0.226,0.77,0.078,0.907,0.004c0.136-0.074,0.457-0.296,0.491-0.761l1.557-21.413c0.076-1.061-0.469-2.09-1.39-2.621l0,0
					l-19.154-11.059C392.176,122.34,392.017,122.308,391.877,122.308z"/>
			</g>
			<g>
				<g>
					<path style="fill:#BA68C8;" d="M373.595,173.418c-0.238,0-0.48-0.061-0.701-0.188l-58.9-34.006
						c-0.672-0.388-0.902-1.247-0.515-1.918c0.389-0.672,1.25-0.902,1.919-0.514l58.9,34.006c0.672,0.388,0.902,1.247,0.515,1.918
						C374.552,173.166,374.08,173.418,373.595,173.418z"/>
					<path style="fill:#BA68C8;" d="M372.244,185.502c-0.238,0-0.48-0.061-0.701-0.188l-58.9-34.006
						c-0.672-0.388-0.902-1.247-0.515-1.918c0.39-0.671,1.25-0.902,1.919-0.514l58.9,34.006c0.672,0.388,0.902,1.247,0.515,1.919
						C373.201,185.251,372.729,185.502,372.244,185.502z"/>
				</g>
				<path style="fill:#BA68C8;" d="M406.23,211.249c-0.624,0-1.249-0.157-1.816-0.471l-18.213-10.079
					c-2.667-1.476-4.223-4.392-3.963-7.429l1.736-20.302c0.109-1.285,0.857-2.41,2.002-3.007c1.146-0.597,2.495-0.567,3.612,0.077
					l19.154,11.059l0,0c1.847,1.066,2.94,3.13,2.786,5.257l-1.557,21.414c-0.094,1.283-0.824,2.414-1.955,3.027
					C407.457,211.098,406.844,211.249,406.23,211.249z M387.718,172.342c-0.2,0-0.36,0.066-0.441,0.109
					c-0.138,0.072-0.463,0.29-0.503,0.755l-1.736,20.303c-0.165,1.935,0.825,3.792,2.523,4.732l18.213,10.079
					c0.41,0.227,0.771,0.078,0.906,0.004c0.137-0.074,0.458-0.296,0.492-0.762l1.557-21.413c0.076-1.06-0.469-2.089-1.39-2.621
					l-19.155-11.059C388.018,172.374,387.857,172.342,387.718,172.342z"/>
				<g>
					<path style="fill:#BA68C8;" d="M397.366,195.479c-0.121,0-0.242-0.016-0.361-0.047c-0.43-0.115-0.779-0.425-0.943-0.838
						l-4.158-10.444c-0.287-0.721,0.065-1.538,0.785-1.824c0.718-0.287,1.538,0.064,1.824,0.785l3.459,8.688l19.908-15.816
						c0.609-0.484,1.491-0.381,1.974,0.226c0.482,0.607,0.382,1.491-0.226,1.973l-21.388,16.992
						C397.988,195.374,397.68,195.479,397.366,195.479z"/>
				</g>
			</g>
			<g>
				<g>
					<path style="fill:#BA68C8;" d="M369.436,223.452c-0.238,0-0.48-0.061-0.701-0.189l-58.9-34.006
						c-0.672-0.388-0.902-1.247-0.515-1.918c0.389-0.671,1.249-0.902,1.919-0.514l58.9,34.006c0.672,0.388,0.902,1.247,0.515,1.918
						C370.394,223.2,369.922,223.452,369.436,223.452z"/>
					<path style="fill:#BA68C8;" d="M368.086,235.536c-0.238,0-0.48-0.061-0.701-0.188l-58.9-34.006
						c-0.672-0.388-0.902-1.247-0.515-1.918c0.389-0.671,1.25-0.902,1.919-0.514l58.9,34.006c0.672,0.388,0.902,1.247,0.515,1.918
						C369.043,235.284,368.571,235.536,368.086,235.536z"/>
				</g>
				<path style="fill:#BA68C8;" d="M402.071,261.283c-0.624,0-1.248-0.157-1.815-0.471l-18.213-10.079
					c-2.667-1.476-4.223-4.392-3.963-7.429l1.735-20.302c0.11-1.286,0.859-2.41,2.003-3.007c1.146-0.597,2.495-0.567,3.612,0.078
					l19.154,11.059c0,0,0,0,0.001,0c1.846,1.067,2.939,3.131,2.785,5.257l-1.558,21.414c-0.093,1.282-0.823,2.414-1.954,3.027
					C403.299,261.131,402.685,261.283,402.071,261.283z M383.56,222.376c-0.2,0-0.36,0.066-0.441,0.109
					c-0.139,0.072-0.464,0.29-0.504,0.756l-1.735,20.302c-0.165,1.935,0.825,3.792,2.523,4.732l18.213,10.079
					c0.41,0.227,0.769,0.078,0.906,0.004c0.136-0.074,0.457-0.296,0.491-0.76l1.558-21.414c0.076-1.06-0.469-2.089-1.39-2.621
					l-19.155-11.059C383.859,222.408,383.699,222.376,383.56,222.376z"/>
			</g>
		</g>
		<path style="fill:#BA68C8;" d="M401.091,107.851c-1.024,0-2.049-0.264-2.985-0.792l-25.145-14.168
			c-0.277-0.156-0.493-0.401-0.612-0.696c-1.327-3.272-3.697-6.198-6.185-7.635c-1.044-0.603-3.623-1.786-5.034,0.215
			c-0.415,0.589-1.209,0.768-1.837,0.414l-21.552-12.144c-2.494-1.406-4.043-4.057-4.043-6.919V50.75
			c0-3.398,1.994-6.511,5.081-7.931c0.414-0.191,0.896-0.169,1.293,0.062l69.458,40.361c0.457,0.266,0.727,0.766,0.696,1.294
			c-0.03,0.528-0.354,0.995-0.839,1.207c-1.349,0.59-2.22,1.923-2.22,3.396v12.624c0,2.184-1.126,4.146-3.012,5.248
			C403.199,107.571,402.145,107.851,401.091,107.851z M374.759,90.68l24.726,13.932c1.023,0.577,2.239,0.567,3.255-0.025
			c1.015-0.593,1.62-1.648,1.62-2.823V89.14c0-1.741,0.692-3.371,1.868-4.567l-66.893-38.87c-1.737,1.067-2.828,2.979-2.828,5.048
			v15.376c0,1.85,1.002,3.563,2.613,4.472l20.574,11.593c1.945-1.722,4.9-1.781,7.874-0.064
			C370.497,83.818,373.158,86.992,374.759,90.68z"/>
	</g>
</g>
<g id="Chair">
	<g>
		<path style="fill:#263238;" d="M228.113,268.362l-12.026,73.383c-0.181,1.107-1.138,1.919-2.259,1.919l0,0
			c-1.365,0-2.426-1.187-2.275-2.543l8.437-75.706L228.113,268.362z"/>
		<path style="fill:#263238;" d="M186.601,243.681l-12.026,73.383c-0.181,1.107-1.138,1.919-2.259,1.919l0,0
			c-1.365,0-2.426-1.187-2.275-2.543l8.437-75.705L186.601,243.681z"/>
		<path style="fill:#263238;" d="M246.574,251.201l11.867,63.238c0.167,0.914,0.959,1.573,1.896,1.573
			c1.171,0,2.074-1.048,1.907-2.208l-8.766-58.61L246.574,251.201z"/>
		<path style="fill:#263238;" d="M204.594,227.612l11.8,62.848c0.167,0.914,0.959,1.573,1.896,1.573
			c1.171,0,2.074-1.048,1.907-2.208l-8.699-58.23L204.594,227.612z"/>
		<path style="fill:#BA68C8;" d="M208.017,222.827c5.538-2.469,9.333-7.69,9.933-13.723c1.914-19.255,8.695-58.935,31.676-45.726
			c28.365,16.304,18.209,63.647,14.085,78.829c-0.93,3.425-2.713,6.548-5.213,9.067c-5.124,5.163-15.734,14.051-33.776,21.62
			c-2.213,0.928-4.68,1.074-6.988,0.417c-8.964-2.554-32.384-10.396-44.061-25.326c-1.38-1.765-1.08-4.314,0.674-5.708
			C179.077,238.516,189.764,230.964,208.017,222.827z"/>
		<path style="opacity:0.5;" d="M208.017,222.827c5.538-2.469,9.333-7.69,9.933-13.723c1.914-19.255,8.695-58.935,31.676-45.726
			c28.365,16.304,18.209,63.647,14.085,78.829c-0.93,3.425-2.713,6.548-5.213,9.067c-5.124,5.163-15.734,14.051-33.776,21.62
			c-2.213,0.928-4.68,1.074-6.988,0.417c-8.964-2.554-32.384-10.396-44.061-25.326c-1.38-1.765-1.08-4.314,0.674-5.708
			C179.077,238.516,189.764,230.964,208.017,222.827z"/>
		<path style="fill:#BA68C8;" d="M172.829,245.266c-0.048,0.947,0.215,1.914,0.845,2.718c0.623,0.797,1.286,1.569,1.973,2.326l0,0
			c0,0,0,0,0,0.001c0.375,0.414,0.76,0.822,1.152,1.223c0.008,0.008,0.016,0.016,0.023,0.024c0.388,0.397,0.785,0.789,1.188,1.175
			c0.012,0.011,0.024,0.023,0.035,0.034c0.404,0.385,0.814,0.765,1.232,1.139c0.01,0.009,0.021,0.019,0.031,0.028
			c0.421,0.376,0.849,0.747,1.283,1.112c0.005,0.005,0.011,0.01,0.017,0.014c6.622,5.561,14.658,9.791,21.843,12.846
			c0.009,0.004,0.018,0.008,0.028,0.012c0.447,0.19,0.89,0.375,1.331,0.556c0.046,0.019,0.092,0.038,0.138,0.057
			c0.412,0.169,0.82,0.333,1.225,0.494c0.071,0.028,0.142,0.057,0.213,0.085c0.385,0.152,0.765,0.301,1.142,0.446
			c0.087,0.034,0.174,0.067,0.262,0.1c0.359,0.137,0.714,0.271,1.065,0.402c0.103,0.039,0.206,0.077,0.308,0.114
			c0.331,0.122,0.659,0.242,0.982,0.359c0.12,0.043,0.237,0.085,0.356,0.128c0.306,0.109,0.609,0.217,0.907,0.321
			c0.127,0.044,0.251,0.087,0.376,0.131c0.283,0.098,0.565,0.195,0.84,0.289c0.136,0.046,0.268,0.09,0.402,0.135
			c0.258,0.086,0.514,0.172,0.763,0.254c0.147,0.048,0.289,0.094,0.433,0.141c0.229,0.075,0.459,0.15,0.681,0.22
			c0.158,0.05,0.308,0.097,0.462,0.146c0.199,0.063,0.4,0.126,0.592,0.186c0.171,0.053,0.333,0.102,0.498,0.153
			c0.167,0.051,0.337,0.104,0.498,0.152c0.21,0.063,0.409,0.122,0.609,0.181c0.102,0.03,0.21,0.063,0.31,0.092
			c0.3,0.088,0.587,0.171,0.861,0.249c2.308,0.658,4.775,0.512,6.988-0.417c18.043-7.569,28.653-16.457,33.777-21.62
			c2.5-2.519,4.282-5.642,5.213-9.067c4.124-15.181,14.28-62.525-14.085-78.829c-0.503-0.289-0.995-0.544-1.483-0.783
			c-0.106-0.052-0.213-0.105-0.318-0.154c-0.48-0.227-0.953-0.434-1.419-0.613c-0.046-0.018-0.09-0.032-0.136-0.049
			c-0.446-0.168-0.885-0.313-1.318-0.439c-0.066-0.019-0.133-0.041-0.2-0.059c-0.466-0.13-0.924-0.235-1.374-0.317
			c-0.039-0.007-0.077-0.012-0.115-0.019c-0.939-0.163-1.845-0.224-2.719-0.191c-0.017,0.001-0.034,0.002-0.051,0.002
			c-0.893,0.038-1.752,0.173-2.578,0.4c0,0,0,0,0,0c4.531-2.002,10.063-1.911,15.548,1.241
			c28.365,16.304,18.209,63.647,14.085,78.829l-0.697,2.608c-1.408,5.267-4.522,9.92-8.853,13.231l-7.36,5.625v-0.003
			c-5.959,4.583-14.414,9.929-25.888,14.745c-2.22,0.932-4.693,1.09-7.008,0.43c-8.959-2.552-32.388-10.394-44.068-25.328
			c-0.521-0.666-0.789-1.441-0.839-2.224h-0.018v-5.056L172.829,245.266z"/>
		<path style="opacity:0.6;" d="M172.829,245.266c-0.048,0.947,0.215,1.914,0.845,2.718c0.623,0.797,1.286,1.569,1.973,2.326l0,0
			c0,0,0,0,0,0.001c0.375,0.414,0.76,0.822,1.152,1.223c0.008,0.008,0.016,0.016,0.023,0.024c0.388,0.397,0.785,0.789,1.188,1.175
			c0.012,0.011,0.024,0.023,0.035,0.034c0.404,0.385,0.814,0.765,1.232,1.139c0.01,0.009,0.021,0.019,0.031,0.028
			c0.421,0.376,0.849,0.747,1.283,1.112c0.005,0.005,0.011,0.01,0.017,0.014c6.622,5.561,14.658,9.791,21.843,12.846
			c0.009,0.004,0.018,0.008,0.028,0.012c0.447,0.19,0.89,0.375,1.331,0.556c0.046,0.019,0.092,0.038,0.138,0.057
			c0.412,0.169,0.82,0.333,1.225,0.494c0.071,0.028,0.142,0.057,0.213,0.085c0.385,0.152,0.765,0.301,1.142,0.446
			c0.087,0.034,0.174,0.067,0.262,0.1c0.359,0.137,0.714,0.271,1.065,0.402c0.103,0.039,0.206,0.077,0.308,0.114
			c0.331,0.122,0.659,0.242,0.982,0.359c0.12,0.043,0.237,0.085,0.356,0.128c0.306,0.109,0.609,0.217,0.907,0.321
			c0.127,0.044,0.251,0.087,0.376,0.131c0.283,0.098,0.565,0.195,0.84,0.289c0.136,0.046,0.268,0.09,0.402,0.135
			c0.258,0.086,0.514,0.172,0.763,0.254c0.147,0.048,0.289,0.094,0.433,0.141c0.229,0.075,0.459,0.15,0.681,0.22
			c0.158,0.05,0.308,0.097,0.462,0.146c0.199,0.063,0.4,0.126,0.592,0.186c0.171,0.053,0.333,0.102,0.498,0.153
			c0.167,0.051,0.337,0.104,0.498,0.152c0.21,0.063,0.409,0.122,0.609,0.181c0.102,0.03,0.21,0.063,0.31,0.092
			c0.3,0.088,0.587,0.171,0.861,0.249c2.308,0.658,4.775,0.512,6.988-0.417c18.043-7.569,28.653-16.457,33.777-21.62
			c2.5-2.519,4.282-5.642,5.213-9.067c4.124-15.181,14.28-62.525-14.085-78.829c-0.503-0.289-0.995-0.544-1.483-0.783
			c-0.106-0.052-0.213-0.105-0.318-0.154c-0.48-0.227-0.953-0.434-1.419-0.613c-0.046-0.018-0.09-0.032-0.136-0.049
			c-0.446-0.168-0.885-0.313-1.318-0.439c-0.066-0.019-0.133-0.041-0.2-0.059c-0.466-0.13-0.924-0.235-1.374-0.317
			c-0.039-0.007-0.077-0.012-0.115-0.019c-0.939-0.163-1.845-0.224-2.719-0.191c-0.017,0.001-0.034,0.002-0.051,0.002
			c-0.893,0.038-1.752,0.173-2.578,0.4c0,0,0,0,0,0c4.531-2.002,10.063-1.911,15.548,1.241
			c28.365,16.304,18.209,63.647,14.085,78.829l-0.697,2.608c-1.408,5.267-4.522,9.92-8.853,13.231l-7.36,5.625v-0.003
			c-5.959,4.583-14.414,9.929-25.888,14.745c-2.22,0.932-4.693,1.09-7.008,0.43c-8.959-2.552-32.388-10.394-44.068-25.328
			c-0.521-0.666-0.789-1.441-0.839-2.224h-0.018v-5.056L172.829,245.266z"/>
	</g>
</g>
<g id="Desk">
	<g>
		<g>
			<g>
				<path style="fill:#37474F;" d="M210.122,414.162c1.304,0.753,3.417,0.753,4.721,0c1.304-0.753,1.304-1.973,0-2.726
					c-1.304-0.753-3.417-0.753-4.721,0C208.819,412.189,208.819,413.409,210.122,414.162z"/>
				
					<rect x="209.139" y="332.366" transform="matrix(-1 -1.224647e-16 1.224647e-16 -1 424.9536 745.0908)" style="fill:#37474F;" width="6.677" height="80.358"/>
			</g>
			<g>
				<path style="fill:#263238;" d="M286.034,369.587c1.304,0.753,3.417,0.753,4.721,0c1.304-0.753,1.304-1.973,0-2.726
					c-1.304-0.753-3.417-0.753-4.721,0C284.73,367.614,284.73,368.834,286.034,369.587z"/>
				
					<rect x="285.05" y="287.791" transform="matrix(-1 -1.224647e-16 1.224647e-16 -1 576.7762 655.9408)" style="fill:#263238;" width="6.677" height="80.358"/>
			</g>
			<g>
				<path style="fill:#37474F;" d="M85.683,342.065c1.304,0.753,3.417,0.753,4.721,0c1.304-0.753,1.304-1.973,0-2.726
					c-1.304-0.753-3.417-0.753-4.721,0C84.379,340.091,84.379,341.312,85.683,342.065z"/>
				
					<rect x="84.699" y="260.269" transform="matrix(-1 -1.224647e-16 1.224647e-16 -1 176.0742 600.8962)" style="fill:#37474F;" width="6.677" height="80.358"/>
			</g>
			<g>
				<path style="fill:#455A64;" d="M167.289,281.254c1.169,0.675,3.065,0.675,4.235,0c1.169-0.675,1.169-1.77,0-2.445
					c-1.169-0.675-3.065-0.675-4.235,0C166.12,279.484,166.12,280.579,167.289,281.254z"/>
				
					<rect x="166.407" y="212.904" transform="matrix(-1 -1.224647e-16 1.224647e-16 -1 338.8022 492.8686)" style="fill:#455A64;" width="5.989" height="67.061"/>
			</g>
			<g>
				<polygon style="fill:#263238;" points="291.733,274.48 291.733,290.467 212.472,336.228 212.472,320.241 				"/>
				<polygon style="fill:#37474F;" points="84.699,246.471 212.472,320.241 212.472,336.228 84.699,262.459 				"/>
				<polygon style="fill:#455A64;" points="163.96,200.71 291.733,274.48 212.472,320.241 84.699,246.471 				"/>
				<path style="opacity:0.2;" d="M164.357,279.787l-58.769-33.93c-0.617-0.356-0.617-1.247,0-1.603l11.314-6.532
					c0.286-0.165,0.639-0.165,0.926,0l58.769,33.93c0.617,0.356,0.617,1.247,0,1.603l-11.314,6.532
					C164.996,279.952,164.643,279.952,164.357,279.787z"/>
			</g>
		</g>
		<g>
			<g>
				<path style="fill:#BA68C8;" d="M220.631,306.495l-34.278-19.958c-0.335-0.195-0.341-0.677-0.011-0.881l38.038-23.414
					L220.631,306.495z"/>
				<path style="opacity:0.4;" d="M220.631,306.495l-34.278-19.958c-0.335-0.195-0.341-0.677-0.011-0.881l38.038-23.414
					L220.631,306.495z"/>
				<polygon style="fill:#BA68C8;" points="220.631,306.495 258.85,284.368 258.85,274.311 220.631,296.346 				"/>
				<polygon style="opacity:0.2;" points="220.631,306.495 258.85,284.368 258.85,274.311 220.631,296.346 				"/>
				<g>
					<path style="fill:#E6E6E6;" d="M251.393,285.92l-15.092,8.714c-1.004,0.579-1.817-0.036-1.817-1.374l0,0
						c0-1.338,0.814-2.893,1.817-3.472l15.092-8.714c1.004-0.579,1.817,0.036,1.817,1.374l0,0
						C253.211,283.786,252.397,285.341,251.393,285.92z"/>
					<path style="fill:#E6E6E6;" d="M232.267,294.54c0,1.338-0.939,2.965-2.098,3.635c-1.159,0.669-2.098,0.127-2.098-1.212
						s0.939-2.965,2.098-3.634C231.327,292.659,232.267,293.202,232.267,294.54z"/>
				</g>
				<path style="fill:#BA68C8;" d="M220.631,296.346l-34.143-16.046c-0.373-0.175-0.398-0.695-0.044-0.906l36.623-21.78
					c0.42-0.25,0.938-0.272,1.377-0.057l34.406,16.755L220.631,296.346z"/>
				<polygon style="fill:#F5F5F5;" points="188.686,281.333 188.686,285.648 216.973,301.649 216.973,294.627 				"/>
				<polygon style="fill:#E0E0E0;" points="216.973,301.649 220.631,299.363 220.631,296.346 216.973,294.627 				"/>
			</g>
			<g>
				<path style="fill:#BA68C8;" d="M186.193,276.139v-11.155c0,0,62.051,0,62.326,0c0.213,0,6.903,3.487,9.862,5.035
					c0.598,0.313,0.61,1.163,0.023,1.495l-36.933,20.883c-0.525,0.297-1.163,0.317-1.705,0.053L186.193,276.139z"/>
				<path style="opacity:0.4;" d="M186.193,276.139v-11.155c0,0,62.051,0,62.326,0c0.213,0,6.903,3.487,9.862,5.035
					c0.598,0.313,0.61,1.163,0.023,1.495l-36.933,20.883c-0.525,0.297-1.163,0.317-1.705,0.053L186.193,276.139z"/>
				<polygon style="fill:#E0E0E0;" points="220.631,289.763 255.993,269.876 255.993,265.557 220.631,284.368 				"/>
				<polygon style="fill:#BA68C8;" points="186.193,276.139 195.439,270.729 186.193,264.984 				"/>
				<polygon style="opacity:0.6;" points="186.193,276.139 195.439,270.729 186.193,264.984 				"/>
				<polygon style="fill:#F5F5F5;" points="192.031,268.612 192.031,274.768 220.631,289.763 220.631,284.368 				"/>
				<path style="fill:#BA68C8;" d="M186.193,264.984l33.249,19.818c0.739,0.441,1.653,0.466,2.415,0.067l36.656-19.2
					c0.565-0.309,0.596-1.11,0.055-1.461l-33.458-21.744L186.193,264.984z"/>
			</g>
		</g>
		<g>
			<g>
				<polygon style="fill:#BA68C8;" points="200,241.597 200,243.896 185.279,252.205 185.279,249.907 				"/>
				<polygon style="opacity:0.2;fill:#FFFFFF;" points="200,241.597 200,243.896 185.279,252.205 185.279,249.907 				"/>
				<polygon style="fill:#BA68C8;" points="151.69,230.497 185.279,249.907 185.279,252.205 151.69,232.796 				"/>
				<polygon style="opacity:0.4;fill:#FFFFFF;" points="151.69,230.497 185.279,249.907 185.279,252.205 151.69,232.796 				"/>
				<polygon style="fill:#BA68C8;" points="166.412,222.188 200,241.597 185.279,249.907 151.69,230.497 				"/>
				<polygon style="opacity:0.6;fill:#FFFFFF;" points="166.412,222.188 200,241.597 185.279,249.907 151.69,230.497 				"/>
			</g>
			<g>
				<g>
					<path style="fill:#E0E0E0;" d="M173.05,263.217l1.504,0.87v2.748c0.967,0,1.912-0.259,2.743-0.754l0.118-0.071
						c0.705-0.419,1.192-1.106,1.373-1.886c0.05-0.162,0.081-0.335,0.081-0.519v-3.746L173.05,263.217z"/>
					<g>
						<path style="fill:#E6E6E6;" d="M107.704,162.194l0.119-0.071c0.83-0.494,1.777-0.755,2.743-0.755v0.001
							c0.293-0.004,0.595,0.068,0.879,0.232l64.802,37.264c1.622,0.937,2.621,2.667,2.621,4.54v56.454l-5.818,3.358l-61.559-35.39
							c-1.622-0.937-2.621-2.667-2.621-4.54V164.75h-2.618C106.252,163.701,106.804,162.73,107.704,162.194z"/>
					</g>
					<path style="fill:#E0E0E0;" d="M178.31,201.051c0.359,0.718,0.558,1.522,0.558,2.353v56.454l-5.818,3.359l-2.177-1.258v-56.302
						L178.31,201.051z"/>
					<path style="fill:#F0F0F0;" d="M176.25,261.37v3.746c0,1.322-1.431,2.148-2.575,1.487l-64.802-37.264
						c-1.622-0.936-2.621-2.667-2.621-4.54v-3.843L176.25,261.37z"/>
					<g>
						<path style="fill:#F0F0F0;" d="M106.252,164.6c0-1.322,1.431-2.147,2.575-1.487l64.802,37.264
							c1.622,0.936,2.621,2.667,2.621,4.54v56.453l-69.998-40.413"/>
					</g>
				</g>
				<polygon style="fill:#E0E0E0;" points="143.556,230.487 131.213,224.245 134.23,222.188 146.121,228.445 				"/>
				<path style="fill:#E6E6E6;" d="M131.213,224.245l-7.143,28.379c-0.226,0.9,0.178,1.84,0.986,2.295l14.763,8.306
					c0,0,4.587-32.308,3.737-32.738C142.706,230.057,131.213,224.245,131.213,224.245z"/>
				<polygon style="fill:#F0F0F0;" points="147.601,256.865 142.523,253.79 141.545,260.681 				"/>
				<path style="fill:#E0E0E0;" d="M143.556,230.487l-4.586,31.178c-0.187,1.271,1.226,2.159,2.29,1.438l5.863-3.97
					c0.429-0.29,0.686-0.774,0.686-1.292v-0.601c0-0.364-0.408-0.579-0.708-0.373l-5.555,3.814l4.577-32.236L143.556,230.487z"/>
				<path style="fill:#E0E0E0;" d="M143.236,214.597c0,2.731-1.917,3.838-4.282,2.472c-2.365-1.365-4.282-4.686-4.282-7.417
					c0-2.731,1.917-3.838,4.282-2.473C141.318,208.546,143.236,211.866,143.236,214.597z"/>
			</g>
		</g>
	</g>
</g>
<g id="Files">
	<g>
		<polygon style="fill:#FFFFFF;" points="94.941,369.424 134.212,346.931 103.027,329.742 65.134,352.051 		"/>
		<g>
			<path style="fill:#E0E0E0;" d="M96.298,365.669c-0.06,0-0.12-0.016-0.175-0.048L73.318,352.33
				c-0.166-0.097-0.223-0.31-0.126-0.476c0.096-0.167,0.312-0.222,0.476-0.125l22.805,13.292c0.166,0.097,0.223,0.31,0.126,0.476
				C96.534,365.607,96.417,365.669,96.298,365.669z"/>
			<path style="fill:#E0E0E0;" d="M100.043,363.4c-0.06,0-0.12-0.016-0.175-0.048l-22.805-13.291
				c-0.166-0.097-0.223-0.31-0.126-0.476c0.097-0.166,0.311-0.222,0.476-0.125l22.805,13.291c0.166,0.097,0.223,0.31,0.126,0.476
				C100.279,363.338,100.162,363.4,100.043,363.4z"/>
			<path style="fill:#E0E0E0;" d="M103.684,361.234c-0.06,0-0.12-0.016-0.175-0.048l-22.805-13.29
				c-0.166-0.097-0.223-0.31-0.126-0.476c0.096-0.166,0.312-0.222,0.476-0.125l22.805,13.29c0.166,0.097,0.223,0.31,0.126,0.476
				C103.92,361.172,103.803,361.234,103.684,361.234z"/>
			<path style="fill:#E0E0E0;" d="M107.429,358.965c-0.06,0-0.12-0.016-0.175-0.048l-22.805-13.29
				c-0.166-0.097-0.223-0.31-0.126-0.476c0.097-0.166,0.311-0.222,0.476-0.125l22.805,13.29c0.166,0.097,0.223,0.31,0.126,0.476
				C107.665,358.903,107.548,358.965,107.429,358.965z"/>
			<path style="fill:#E0E0E0;" d="M111.174,356.696c-0.059,0-0.12-0.016-0.175-0.048l-22.805-13.29
				c-0.166-0.097-0.223-0.31-0.126-0.476c0.096-0.166,0.311-0.223,0.476-0.125l22.805,13.291c0.166,0.097,0.223,0.31,0.126,0.476
				C111.41,356.634,111.293,356.696,111.174,356.696z"/>
			<path style="fill:#E0E0E0;" d="M114.918,354.427c-0.06,0-0.12-0.016-0.175-0.048l-22.805-13.29
				c-0.166-0.097-0.223-0.31-0.126-0.476c0.096-0.167,0.311-0.223,0.476-0.125l22.805,13.29c0.166,0.097,0.223,0.31,0.126,0.476
				C115.154,354.365,115.037,354.427,114.918,354.427z"/>
			<path style="fill:#E0E0E0;" d="M118.663,352.157c-0.06,0-0.12-0.016-0.175-0.048l-22.805-13.291
				c-0.166-0.097-0.223-0.31-0.126-0.476c0.096-0.167,0.312-0.222,0.476-0.125l22.805,13.29c0.166,0.097,0.223,0.31,0.126,0.476
				C118.899,352.095,118.782,352.157,118.663,352.157z"/>
			<path style="fill:#E0E0E0;" d="M122.408,349.888c-0.06,0-0.12-0.016-0.175-0.048l-22.805-13.29
				c-0.166-0.097-0.223-0.31-0.126-0.476c0.097-0.167,0.311-0.222,0.476-0.125l22.805,13.291c0.166,0.097,0.223,0.31,0.126,0.476
				C122.645,349.826,122.527,349.888,122.408,349.888z"/>
			<path style="fill:#E0E0E0;" d="M126.152,347.619c-0.06,0-0.12-0.016-0.175-0.048l-22.805-13.29
				c-0.166-0.097-0.223-0.31-0.126-0.476c0.097-0.166,0.311-0.222,0.476-0.125l22.805,13.29c0.166,0.097,0.223,0.31,0.126,0.476
				C126.389,347.557,126.271,347.619,126.152,347.619z"/>
		</g>
		<polygon style="fill:#FAFAFA;" points="65.246,351.94 95.053,369.312 95.053,396.01 65.246,379.552 		"/>
		<polygon style="fill:#E6E6E6;" points="95.053,369.312 134.324,346.819 134.324,373.212 95.053,396.01 		"/>
		<polygon style="fill:#E0E0E0;" points="88.641,371.921 95.053,375.658 108.921,367.716 95.053,377.687 		"/>
		<polygon style="fill:#E0E0E0;" points="88.641,381.216 95.053,384.953 102.886,380.466 95.053,386.982 		"/>
		<g>
			<polygon style="fill:#E0E0E0;" points="98.781,376.914 103.684,378.372 107.429,372.701 			"/>
			<polygon style="fill:#FFFFFF;" points="98.781,376.914 113.574,368.489 106.177,376.914 			"/>
		</g>
		<g>
			<polygon style="fill:#E0E0E0;" points="120.918,358.813 124.388,359.845 127.038,355.832 			"/>
			<polygon style="fill:#FFFFFF;" points="120.918,358.813 131.387,352.85 126.153,358.813 			"/>
		</g>
		<g>
			<polygon style="fill:#E0E0E0;" points="113.428,378.664 116.898,379.696 119.549,375.683 			"/>
			<polygon style="fill:#FFFFFF;" points="113.428,378.664 123.898,372.701 118.663,378.664 			"/>
		</g>
	</g>
	<g>
		<g>
			<path style="fill:#BA68C8;" d="M155.727,430.777l-34.278-19.958c-0.335-0.195-0.341-0.677-0.011-0.881l38.037-23.414
				L155.727,430.777z"/>
			<path style="opacity:0.4;" d="M155.727,430.777l-34.278-19.958c-0.335-0.195-0.341-0.677-0.011-0.881l38.037-23.414
				L155.727,430.777z"/>
			<polygon style="fill:#BA68C8;" points="155.727,430.777 193.946,408.651 193.946,398.593 155.727,420.628 			"/>
			<polygon style="opacity:0.2;" points="155.727,430.777 193.946,408.651 193.946,398.593 155.727,420.628 			"/>
			<g>
				<path style="fill:#E6E6E6;" d="M186.489,410.202l-15.092,8.714c-1.004,0.579-1.817-0.036-1.817-1.374l0,0
					c0-1.338,0.814-2.893,1.817-3.472l15.092-8.714c1.004-0.579,1.817,0.036,1.817,1.374l0,0
					C188.307,408.068,187.493,409.623,186.489,410.202z"/>
				<path style="fill:#E6E6E6;" d="M167.363,418.822c0,1.338-0.939,2.965-2.098,3.634s-2.098,0.127-2.098-1.211
					s0.939-2.965,2.098-3.634C166.423,416.942,167.363,417.484,167.363,418.822z"/>
			</g>
			<path style="fill:#BA68C8;" d="M155.727,420.628l-34.143-16.047c-0.373-0.175-0.398-0.695-0.044-0.906l36.623-21.781
				c0.42-0.25,0.938-0.271,1.378-0.057l34.406,16.755L155.727,420.628z"/>
			<polygon style="fill:#F5F5F5;" points="123.782,405.615 123.782,409.931 152.07,425.931 152.07,418.909 			"/>
			<polygon style="fill:#E0E0E0;" points="152.07,425.931 155.727,423.646 155.727,420.628 152.07,418.909 			"/>
		</g>
		<g>
			<path style="fill:#BA68C8;" d="M121.288,400.422v-11.155c0,0,62.051,0,62.326,0c0.214,0,6.904,3.487,9.862,5.035
				c0.598,0.313,0.61,1.163,0.023,1.495l-36.933,20.883c-0.525,0.297-1.163,0.317-1.705,0.053L121.288,400.422z"/>
			<path style="opacity:0.4;" d="M121.288,400.422v-11.155c0,0,62.051,0,62.326,0c0.214,0,6.904,3.487,9.862,5.035
				c0.598,0.313,0.61,1.163,0.023,1.495l-36.933,20.883c-0.525,0.297-1.163,0.317-1.705,0.053L121.288,400.422z"/>
			<polygon style="fill:#E0E0E0;" points="155.727,414.045 191.089,394.158 191.089,389.839 155.727,408.651 			"/>
			<polygon style="fill:#BA68C8;" points="121.288,400.422 130.536,395.012 121.288,389.267 			"/>
			<polygon style="opacity:0.6;" points="121.288,400.422 130.536,395.012 121.288,389.267 			"/>
			<polygon style="fill:#F5F5F5;" points="127.127,392.894 127.127,399.05 155.727,414.045 155.727,408.651 			"/>
			<path style="fill:#BA68C8;" d="M121.288,389.267l33.249,19.818c0.739,0.441,1.654,0.466,2.415,0.067l36.656-19.2
				c0.565-0.309,0.596-1.11,0.056-1.461l-33.458-21.743L121.288,389.267z"/>
		</g>
		<g>
			<path style="fill:#BA68C8;" d="M155.727,405.615l-34.278-19.958c-0.335-0.195-0.341-0.677-0.011-0.881l38.037-23.414
				L155.727,405.615z"/>
			<path style="opacity:0.4;" d="M155.727,405.615l-34.278-19.958c-0.335-0.195-0.341-0.677-0.011-0.881l38.037-23.414
				L155.727,405.615z"/>
			<polygon style="fill:#BA68C8;" points="155.727,405.615 193.946,383.488 193.946,373.431 155.727,395.466 			"/>
			<polygon style="opacity:0.2;" points="155.727,405.615 193.946,383.488 193.946,373.431 155.727,395.466 			"/>
			<g>
				<path style="fill:#E6E6E6;" d="M186.489,385.04l-15.092,8.714c-1.004,0.579-1.817-0.035-1.817-1.374l0,0
					c0-1.338,0.814-2.893,1.817-3.472l15.092-8.714c1.004-0.579,1.817,0.035,1.817,1.374l0,0
					C188.307,382.906,187.493,384.461,186.489,385.04z"/>
				<path style="fill:#E6E6E6;" d="M167.363,393.66c0,1.338-0.939,2.965-2.098,3.634c-1.159,0.669-2.098,0.127-2.098-1.211
					c0-1.338,0.939-2.965,2.098-3.634C166.423,391.78,167.363,392.322,167.363,393.66z"/>
			</g>
			<path style="fill:#BA68C8;" d="M155.727,395.466l-34.143-16.046c-0.373-0.175-0.398-0.695-0.044-0.906l36.623-21.781
				c0.42-0.25,0.938-0.271,1.378-0.057l34.406,16.755L155.727,395.466z"/>
			<polygon style="fill:#F5F5F5;" points="123.782,380.453 123.782,384.768 152.07,400.769 152.07,393.747 			"/>
			<polygon style="fill:#E0E0E0;" points="152.07,400.769 155.727,398.483 155.727,395.466 152.07,393.747 			"/>
		</g>
		<g>
			<path style="fill:#BA68C8;" d="M121.336,374.527v-11.155c0,0,62.051,0,62.326,0c0.213,0,6.904,3.487,9.862,5.035
				c0.598,0.313,0.61,1.163,0.023,1.495l-36.933,20.883c-0.525,0.297-1.163,0.317-1.705,0.053L121.336,374.527z"/>
			<path style="opacity:0.4;" d="M121.336,374.527v-11.155c0,0,62.051,0,62.326,0c0.213,0,6.904,3.487,9.862,5.035
				c0.598,0.313,0.61,1.163,0.023,1.495l-36.933,20.883c-0.525,0.297-1.163,0.317-1.705,0.053L121.336,374.527z"/>
			<polygon style="fill:#E0E0E0;" points="155.774,388.151 191.136,368.264 191.136,363.945 155.774,382.756 			"/>
			<polygon style="fill:#BA68C8;" points="121.336,374.527 130.583,369.117 121.336,363.372 			"/>
			<polygon style="opacity:0.6;" points="121.336,374.527 130.583,369.117 121.336,363.372 			"/>
			<polygon style="fill:#F5F5F5;" points="127.174,367 127.174,373.156 155.774,388.151 155.774,382.756 			"/>
			<path style="fill:#BA68C8;" d="M121.336,363.372l33.249,19.818c0.739,0.44,1.653,0.466,2.415,0.066l36.656-19.2
				c0.565-0.309,0.596-1.11,0.056-1.461l-33.458-21.743L121.336,363.372z"/>
		</g>
		<g>
			<path style="fill:#BA68C8;" d="M155.774,379.721l-34.278-19.958c-0.335-0.195-0.341-0.677-0.011-0.881l38.038-23.414
				L155.774,379.721z"/>
			<path style="opacity:0.4;" d="M155.774,379.721l-34.278-19.958c-0.335-0.195-0.341-0.677-0.011-0.881l38.038-23.414
				L155.774,379.721z"/>
			<polygon style="fill:#BA68C8;" points="155.774,379.721 193.993,357.594 193.993,347.536 155.774,369.572 			"/>
			<polygon style="opacity:0.2;" points="155.774,379.721 193.993,357.594 193.993,347.536 155.774,369.572 			"/>
			<g>
				<path style="fill:#E6E6E6;" d="M186.537,359.146l-15.092,8.714c-1.004,0.579-1.817-0.036-1.817-1.374l0,0
					c0-1.338,0.814-2.893,1.817-3.472l15.092-8.714c1.004-0.579,1.817,0.036,1.817,1.374l0,0
					C188.354,357.012,187.54,358.566,186.537,359.146z"/>
				<path style="fill:#E6E6E6;" d="M167.41,367.766c0,1.338-0.94,2.965-2.098,3.634c-1.159,0.669-2.098,0.127-2.098-1.211
					c0-1.338,0.939-2.966,2.098-3.635C166.47,365.885,167.41,366.428,167.41,367.766z"/>
			</g>
			<path style="fill:#BA68C8;" d="M155.774,369.572l-34.143-16.047c-0.373-0.175-0.398-0.695-0.044-0.906l36.623-21.781
				c0.42-0.25,0.938-0.271,1.377-0.057l34.406,16.755L155.774,369.572z"/>
			<polygon style="fill:#F5F5F5;" points="123.83,354.559 123.83,358.874 152.117,374.875 152.117,367.853 			"/>
			<polygon style="fill:#E0E0E0;" points="152.117,374.875 155.774,372.589 155.774,369.572 152.117,367.853 			"/>
		</g>
		<g>
			<polygon style="fill:#FAFAFA;" points="154.818,340.589 194.089,318.096 162.904,300.907 125.011,323.216 			"/>
			<g>
				<path style="fill:#E0E0E0;" d="M156.175,336.835c-0.06,0-0.12-0.016-0.175-0.048l-22.805-13.29
					c-0.166-0.097-0.223-0.31-0.126-0.476c0.096-0.166,0.312-0.222,0.476-0.125l22.805,13.29c0.166,0.097,0.223,0.31,0.126,0.476
					C156.411,336.772,156.294,336.835,156.175,336.835z"/>
				<path style="fill:#E0E0E0;" d="M159.92,334.565c-0.06,0-0.12-0.016-0.175-0.048l-22.805-13.29
					c-0.166-0.097-0.223-0.31-0.126-0.476c0.097-0.166,0.311-0.223,0.475-0.125l22.805,13.29c0.166,0.097,0.223,0.31,0.126,0.476
					C160.156,334.503,160.039,334.565,159.92,334.565z"/>
				<path style="fill:#E0E0E0;" d="M163.561,332.399c-0.059,0-0.12-0.016-0.175-0.048l-22.805-13.291
					c-0.166-0.097-0.223-0.31-0.126-0.476c0.096-0.167,0.312-0.222,0.476-0.125l22.805,13.29c0.166,0.097,0.223,0.31,0.126,0.476
					C163.797,332.337,163.68,332.399,163.561,332.399z"/>
				<path style="fill:#E0E0E0;" d="M167.306,330.13c-0.06,0-0.12-0.016-0.175-0.048l-22.805-13.29
					c-0.166-0.097-0.223-0.31-0.126-0.476c0.097-0.166,0.311-0.222,0.476-0.125l22.805,13.291c0.166,0.097,0.223,0.31,0.126,0.476
					C167.542,330.068,167.425,330.13,167.306,330.13z"/>
				<path style="fill:#E0E0E0;" d="M171.051,327.861c-0.06,0-0.12-0.016-0.175-0.048l-22.805-13.29
					c-0.166-0.097-0.223-0.31-0.126-0.476c0.096-0.166,0.311-0.222,0.476-0.125l22.805,13.291c0.166,0.097,0.223,0.31,0.126,0.476
					C171.287,327.799,171.17,327.861,171.051,327.861z"/>
				<path style="fill:#E0E0E0;" d="M174.795,325.592c-0.06,0-0.12-0.016-0.175-0.048l-22.805-13.291
					c-0.166-0.097-0.223-0.31-0.126-0.476c0.096-0.166,0.311-0.222,0.475-0.125l22.805,13.291c0.166,0.097,0.223,0.31,0.126,0.476
					C175.031,325.53,174.914,325.592,174.795,325.592z"/>
				<path style="fill:#E0E0E0;" d="M178.54,323.322c-0.059,0-0.12-0.016-0.175-0.048l-22.805-13.291
					c-0.166-0.097-0.223-0.31-0.126-0.476c0.096-0.167,0.311-0.223,0.476-0.125l22.805,13.29c0.166,0.097,0.223,0.31,0.126,0.476
					C178.776,323.26,178.659,323.322,178.54,323.322z"/>
				<path style="fill:#E0E0E0;" d="M182.285,321.053c-0.06,0-0.12-0.016-0.175-0.048l-22.805-13.291
					c-0.166-0.097-0.223-0.31-0.126-0.476c0.097-0.167,0.311-0.223,0.476-0.125l22.805,13.29c0.166,0.097,0.223,0.31,0.126,0.476
					C182.521,320.991,182.404,321.053,182.285,321.053z"/>
				<path style="fill:#E0E0E0;" d="M186.029,318.784c-0.06,0-0.12-0.016-0.175-0.048l-22.805-13.29
					c-0.166-0.097-0.223-0.31-0.126-0.476c0.097-0.167,0.311-0.222,0.476-0.125l22.805,13.291c0.166,0.097,0.223,0.31,0.126,0.476
					C186.266,318.722,186.148,318.784,186.029,318.784z"/>
			</g>
			<polygon style="fill:#F0F0F0;" points="125.123,323.104 154.93,340.477 154.93,367.175 125.123,350.717 			"/>
			<polygon style="fill:#E6E6E6;" points="154.93,340.477 194.201,317.984 194.201,344.377 154.93,367.175 			"/>
			<polygon style="fill:#E0E0E0;" points="148.518,343.086 154.93,346.823 168.798,338.881 154.93,348.852 			"/>
			<polygon style="fill:#E0E0E0;" points="148.518,352.38 154.93,356.118 162.763,351.632 154.93,358.147 			"/>
			<g>
				<polygon style="fill:#E0E0E0;" points="158.658,348.079 163.561,349.538 167.306,343.866 				"/>
				<polygon style="fill:#FFFFFF;" points="158.658,348.079 173.451,339.654 166.054,348.079 				"/>
			</g>
			<g>
				<polygon style="fill:#E0E0E0;" points="180.795,329.978 184.265,331.01 186.915,326.997 				"/>
				<polygon style="fill:#FFFFFF;" points="180.795,329.978 191.264,324.015 186.03,329.978 				"/>
			</g>
			<g>
				<polygon style="fill:#E0E0E0;" points="173.305,349.829 176.775,350.861 179.426,346.848 				"/>
				<polygon style="fill:#FFFFFF;" points="173.305,349.829 183.775,343.866 178.54,349.829 				"/>
			</g>
			<g>
				<polygon style="fill:#E0E0E0;" points="135.824,350.662 133.276,351.421 131.33,348.473 				"/>
				<polygon style="fill:#FFFFFF;" points="135.824,350.662 128.136,346.283 131.98,350.662 				"/>
			</g>
			<g>
				<polygon style="fill:#E0E0E0;" points="145.824,340.18 142.353,341.212 139.703,337.198 				"/>
				<polygon style="fill:#FFFFFF;" points="145.824,340.18 135.354,334.217 140.589,340.18 				"/>
			</g>
		</g>
	</g>
</g>
<g id="Character">
	<g>
		<polygon style="fill:#37474F;" points="389.973,394.315 386.636,392.921 387.504,388.875 		"/>
		<polygon style="fill:#455A64;" points="393.722,383.435 395.139,389.789 389.973,394.315 387.504,388.875 		"/>
		<path style="fill:#263238;" d="M379.458,376.851c0,0-1.463,3.657-2.103,8.138c-0.64,4.48-3.546,8.932-5.257,10.515
			c-2.423,2.24-6.766,7.392,0.766,8.32c7.784,0.96,14.321-5.486,14.412-9.052c0.092-3.566,1.057-6.374,2.972-8.046
			c2.049-1.789,3.475-3.292,3.475-3.292s-3.469-12.465-6.444-11.764C384.304,372.371,379.458,376.851,379.458,376.851z"/>
		<g>
			<path style="fill:#455A64;" d="M382.472,364.659c-2.239-3.377-4.77-7.364-6.808-11.032c-4.8-8.641-12.069-22.355-19.201-25.098
				v-58.22l-27.384-1.257c0,0-8.961,31.91,3.794,57.557c9.138,18.374,28.971,37.518,39.487,46.9
				C375.644,372.972,381.639,371.111,382.472,364.659z"/>
			<path style="fill:#945959;" d="M388.007,372.691c0,0-2.499-3.454-5.535-8.032c-0.833,6.451-6.828,8.313-10.111,8.85
				c4.163,3.715,6.869,5.902,6.869,5.902S388.144,380.646,388.007,372.691z"/>
		</g>
		<path style="fill:#37474F;" d="M331.837,324.358l7.345-36.22c0,0-5.486-3.201-5.486-11.658c0,0-0.686,8.161,3.017,14.058
			l-6.318,30.277C330.833,322.006,331.322,323.185,331.837,324.358z"/>
		<path style="fill:#37474F;" d="M356.463,328.529v-2.098l-3.497,2.235l-6.378,9.875l-0.596,7.746
			c2.509,3.092,5.123,6.09,7.739,8.937l0.515-12.706l4.807-12.537C358.191,329.357,357.326,328.861,356.463,328.529z"/>
		<path style="fill:#455A64;" d="M332.05,303.019"/>
		<g>
			<polygon style="fill:#37474F;" points="331.273,424.671 327.89,422.751 331.273,418.271 			"/>
			<polygon style="fill:#455A64;" points="336.193,416.076 336.193,421.745 331.273,424.671 331.273,418.271 			"/>
			<path style="fill:#263238;" d="M325.513,404.059c0,0-1.92-0.783-3.749,5.891c-1.829,6.675-9.418,10.972-11.338,12.161
				c-1.92,1.188-7.04,6.034,0,8.503c7.04,2.469,15.909-1.189,18.012-5.395c2.103-4.206,3.165-6.766,7.755-9.143c0,0,0-6.858,0-8.503
				c0-1.646-1.72-2.834-2.817-3.109C332.279,404.19,325.513,404.059,325.513,404.059z"/>
		</g>
		<g>
			<path style="fill:#455A64;" d="M364.555,269.052l-30.859-2.171c0,0,0,6.24,0,9.6c0,8.457,5.486,11.658,5.486,11.658
				l-9.337,46.043c-0.45,2.218-0.755,4.463-0.913,6.721l-4.05,57.722c1.915,1.67,5.696,3.87,11.311,2.296
				c2.097-6.429,5.675-17.174,9.892-28.915c5.088-14.165,5.316-23.986,5.116-27.985c-0.07-1.406,0.167-2.802,0.726-4.094
				c1.686-3.9,5.775-13.374,12.628-29.364C377.305,280.812,364.555,269.052,364.555,269.052z"/>
			<path style="fill:#945959;" d="M324.883,398.625l-0.581,8.285c0,0,1.303,2.583,4.96,2.583c3.657,0,4.937-2.377,4.937-2.377
				s0.727-2.311,1.994-6.196C330.578,402.494,326.798,400.294,324.883,398.625z"/>
		</g>
		<g>
			<g>
				<path style="fill:#BA68C8;" d="M336.769,224.615c0,0-8.614,0.33-11.627,6.657c-3.012,6.327-7.31,19.091-7.31,19.091
					l11.555,2.596L336.769,224.615z"/>
				<path style="opacity:0.2;fill:#FFFFFF;" d="M336.769,224.615c0,0-8.614,0.33-11.627,6.657c-3.012,6.327-7.31,19.091-7.31,19.091
					l11.555,2.596L336.769,224.615z"/>
			</g>
			<path style="fill:#BA68C8;" d="M355.2,225.919l9.355,1.622v21.03l-2.926,11.155c0,0,0.549,6.035,2.926,9.326
				c0,0-16.641,12.618-35.476,0c0,0,0.732-10.972,0.732-14.081c0,0-6.378-3.84-5.749-9.692c0.629-5.852,12.708-20.664,12.708-20.664
				l6.64-0.087L355.2,225.919z"/>
			<path style="opacity:0.4;fill:#FFFFFF;" d="M355.2,225.919l9.355,1.622v21.03l-2.926,11.155c0,0,0.549,6.035,2.926,9.326
				c0,0-16.641,12.618-35.476,0c0,0,0.732-10.972,0.732-14.081c0,0-6.378-3.84-5.749-9.692c0.629-5.852,12.708-20.664,12.708-20.664
				l6.64-0.087L355.2,225.919z"/>
			<path style="fill:#263238;" d="M339.127,182.984c0,0-8.073-2.802-10.043,5.466c-1.969,8.269,4.103,16.295-5.023,19.043
				c0,0,5.364,4.467,10.092-3.876l4.028,16.977c0,0-0.016,0.926-1.412,1.634c0,0,22.969,5.104,27.355-6.35
				c0,0,2.063,1.974,1.003,5.032c0,0,6.77-2.745,4.868-11.507c0,0,5.353-0.156,6.628-4.511c0,0-8.566,0.409-8.514-9.044
				c0.06-10.916-5.685-9.337-5.685-9.337S355.371,176.062,339.127,182.984z"/>
			<g>
				<path style="fill:#945959;" d="M343.409,217.237v7.292c0,0-6.549,11.289-3.952,12.019c4.881,1.372,15.743-10.628,15.743-10.628
					V210.5L343.409,217.237z"/>
				<path style="fill:#703838;" d="M355.069,208.062l0.002,0.424c-2.628,10.364-9.457,12.623-11.662,13.15l-0.08-16.045
					l11.404-0.054L355.069,208.062z"/>
				<path style="fill:#945959;" d="M344.154,184.981c-4.353,0.357-13.409,3.542-13.543,15.019
					c-0.134,11.477,1.622,20.23,7.57,20.594s19.245-5.01,19.863-19.903C358.662,185.797,348.4,184.633,344.154,184.981z"/>
				<polygon style="fill:#703838;" points="338.647,204.608 338.751,211.347 334.787,210.196 				"/>
				<path style="fill:#263238;" d="M344.57,204.428c0.011,0.758-0.595,1.382-1.354,1.392c-0.758,0.011-1.382-0.595-1.392-1.354
					c-0.011-0.758,0.595-1.381,1.353-1.392C343.936,203.064,344.559,203.67,344.57,204.428z"/>
				<path style="fill:#263238;" d="M335.526,203.598c0.011,0.758-0.595,1.382-1.354,1.392c-0.758,0.011-1.381-0.595-1.392-1.354
					c-0.011-0.758,0.595-1.381,1.354-1.392C334.893,202.234,335.516,202.839,335.526,203.598z"/>
				<path style="fill:#BA68C8;" d="M332.441,200.782l2.662-1.632c0,0-1.046-1.056-2.062-0.399
					C332.025,199.408,332.441,200.782,332.441,200.782z"/>
				<path style="fill:#263238;" d="M332.441,200.782l2.662-1.632c0,0-1.046-1.056-2.062-0.399
					C332.025,199.408,332.441,200.782,332.441,200.782z"/>
				<path style="fill:#263238;" d="M351.332,203.807c0,0-0.271,4.831,2.512,4.831h5.45v-9.21c0-10.328-7.835-21.118-24.507-12.588
					C334.787,186.84,333.98,200.628,351.332,203.807z"/>
				<path style="fill:#945959;" d="M353.816,208.074c-0.018-1.051,0.161-2.105,0.601-3.059c0.493-1.07,1.356-2.146,2.834-2.171
					c3.245-0.056,3.651,3.072,3.596,4.184c-0.145,2.919-2.541,6.05-6.944,6.126L353.816,208.074z"/>
				<path style="fill:#703838;" d="M342.26,213.48c0,0.625-0.507,1.131-1.131,1.131c-0.625,0-1.132-0.507-1.132-1.131
					c0-0.625,0.507-1.132,1.132-1.132C341.754,212.349,342.26,212.855,342.26,213.48z"/>
			</g>
			<g>
				<path style="fill:#BA68C8;" d="M364.555,227.541c0,0-7.681,2.789-4.32,16.229c3.36,13.441,6.583,24.687,6.583,24.687
					l-13.372,8.023c0,0,4.869,2.332,3.772,10.903c0,0,17.487-4.32,21.533-7.269s2.674-11.521,1.714-16.252
					c-0.96-4.732-5.486-23.933-6.172-26.538C373.607,234.719,371.557,228.755,364.555,227.541z"/>
				<path style="opacity:0.2;fill:#FFFFFF;" d="M364.555,227.541c0,0-7.681,2.789-4.32,16.229
					c3.36,13.441,6.583,24.687,6.583,24.687l-13.372,8.023c0,0,4.869,2.332,3.772,10.903c0,0,17.487-4.32,21.533-7.269
					s2.674-11.521,1.714-16.252c-0.96-4.732-5.486-23.933-6.172-26.538C373.607,234.719,371.557,228.755,364.555,227.541z"/>
				<path style="fill:#BA68C8;" d="M366.818,268.457c0,0,4.252-0.48,7.543,1.852c0,0-2.999-3.925-8.117-3.882L366.818,268.457z"/>
			</g>
		</g>
		<g>
			<path style="fill:#BA68C8;" d="M311.706,300.688l-34.278-19.958c-0.335-0.195-0.341-0.678-0.011-0.881l38.038-23.414
				L311.706,300.688z"/>
			<path style="opacity:0.4;" d="M311.706,300.688l-34.278-19.958c-0.335-0.195-0.341-0.678-0.011-0.881l38.038-23.414
				L311.706,300.688z"/>
			<polygon style="fill:#BA68C8;" points="311.706,300.688 349.925,278.561 349.925,268.503 311.706,290.539 			"/>
			<polygon style="opacity:0.2;" points="311.706,300.688 349.925,278.561 349.925,268.503 311.706,290.539 			"/>
			<g>
				<path style="fill:#E6E6E6;" d="M342.469,280.112l-15.092,8.714c-1.004,0.579-1.817-0.036-1.817-1.374v0
					c0-1.338,0.814-2.892,1.817-3.472l15.092-8.714c1.004-0.579,1.817,0.035,1.817,1.374l0,0
					C344.286,277.979,343.473,279.533,342.469,280.112z"/>
				<path style="fill:#E6E6E6;" d="M323.342,288.732c0,1.338-0.939,2.965-2.098,3.635c-1.159,0.669-2.098,0.127-2.098-1.212
					c0-1.338,0.94-2.965,2.098-3.634C322.403,286.852,323.342,287.394,323.342,288.732z"/>
			</g>
			<path style="fill:#BA68C8;" d="M311.706,290.539l-34.143-16.047c-0.373-0.175-0.398-0.695-0.044-0.906l36.623-21.78
				c0.42-0.25,0.938-0.272,1.378-0.058l34.406,16.755L311.706,290.539z"/>
			<polygon style="fill:#F5F5F5;" points="279.762,275.525 279.762,279.841 308.049,295.842 308.049,288.82 			"/>
			<polygon style="fill:#E0E0E0;" points="308.049,295.842 311.706,293.556 311.706,290.539 308.049,288.82 			"/>
		</g>
		<path style="fill:#945959;" d="M357.217,287.384c0,0-14.949,3.223-16.389,3.566c-1.44,0.343-8.64,2.606-14.606,1.303l14.744-8.503
			c0,0-7.529-1.836-6.446-4.183c0.411-0.891,14.401-0.411,14.401-0.411l4.526-2.674
			C353.445,276.481,361.469,277.509,357.217,287.384z"/>
		<g>
			<path style="fill:#BA68C8;" d="M277.268,270.332v-11.155c0,0,62.051,0,62.326,0c0.213,0,6.904,3.488,9.862,5.035
				c0.598,0.313,0.61,1.163,0.023,1.495l-36.933,20.883c-0.525,0.297-1.163,0.317-1.706,0.053L277.268,270.332z"/>
			<path style="opacity:0.4;" d="M277.268,270.332v-11.155c0,0,62.051,0,62.326,0c0.213,0,6.904,3.488,9.862,5.035
				c0.598,0.313,0.61,1.163,0.023,1.495l-36.933,20.883c-0.525,0.297-1.163,0.317-1.706,0.053L277.268,270.332z"/>
			<polygon style="fill:#E0E0E0;" points="311.706,283.955 347.068,264.069 347.068,259.75 311.706,278.561 			"/>
			<polygon style="fill:#BA68C8;" points="277.268,270.332 286.515,264.922 277.268,259.177 			"/>
			<polygon style="opacity:0.6;" points="277.268,270.332 286.515,264.922 277.268,259.177 			"/>
			<polygon style="fill:#F5F5F5;" points="283.107,262.804 283.107,268.96 311.706,283.955 311.706,278.561 			"/>
			<path style="fill:#BA68C8;" d="M277.268,259.177l33.249,19.818c0.739,0.44,1.653,0.466,2.415,0.066l36.656-19.201
				c0.565-0.309,0.596-1.11,0.055-1.461l-33.458-21.743L277.268,259.177z"/>
		</g>
		<g>
			<path style="fill:#BA68C8;" d="M311.706,275.525l-34.278-19.958c-0.335-0.195-0.341-0.678-0.011-0.881l38.038-23.414
				L311.706,275.525z"/>
			<path style="opacity:0.4;" d="M311.706,275.525l-34.278-19.958c-0.335-0.195-0.341-0.678-0.011-0.881l38.038-23.414
				L311.706,275.525z"/>
			<polygon style="fill:#BA68C8;" points="311.706,275.525 349.925,253.399 349.925,243.341 311.706,265.376 			"/>
			<polygon style="opacity:0.2;" points="311.706,275.525 349.925,253.399 349.925,243.341 311.706,265.376 			"/>
			<g>
				<path style="fill:#E6E6E6;" d="M342.469,254.95l-15.092,8.714c-1.004,0.579-1.817-0.036-1.817-1.374l0,0
					c0-1.338,0.814-2.893,1.817-3.472l15.092-8.714c1.004-0.579,1.817,0.036,1.817,1.374l0,0
					C344.286,252.816,343.473,254.371,342.469,254.95z"/>
				<path style="fill:#E6E6E6;" d="M323.342,263.57c0,1.338-0.939,2.965-2.098,3.634s-2.098,0.127-2.098-1.211
					c0-1.338,0.94-2.965,2.098-3.635C322.403,261.69,323.342,262.232,323.342,263.57z"/>
			</g>
			<path style="fill:#BA68C8;" d="M311.706,265.376l-34.143-16.047c-0.373-0.175-0.398-0.696-0.044-0.906l36.623-21.781
				c0.42-0.25,0.938-0.271,1.378-0.057l34.406,16.755L311.706,265.376z"/>
			<polygon style="fill:#F5F5F5;" points="279.762,250.363 279.762,254.679 308.049,270.68 308.049,263.658 			"/>
			<polygon style="fill:#E0E0E0;" points="308.049,270.68 311.706,268.394 311.706,265.376 308.049,263.658 			"/>
		</g>
	</g>
</g>
</svg>
